# xmcd CD database file
#
# Track frame offsets:
#	183
#	16845
#	35753
#	54125
#
# Disc length: 953 seconds
#
# Revision: 2
# Processed by: cddbd v1.4PL0 Copyright (c) Steve Scherf et al.
# Submitted via: CDex 1.50
#
DISCID=2503b704
DTITLE=Thomas Lang - Don't Let Me Be Misunderstood
DYEAR=1992
DGENRE=Jazz
TTITLE0=Don't Let Me Be Misunderstood
TTITLE1=Don't Let Me Be Misunderstood(instrumental)
TTITLE2=Don't Let Me Be Misunderstood(redimix)
TTITLE3=Strange Girl
EXTD=YEAR: 1992
EXTT0=
EXTT1=
EXTT2=
EXTT3=
PLAYORDER=
